<svg xmlns="http://www.w3.org/2000/svg" width="27" height="27" viewBox="0 0 27 27">
  <path id="Subtraction_24" data-name="Subtraction 24" d="M472.5,379a13.5,13.5,0,1,1,9.546-3.954A13.412,13.412,0,0,1,472.5,379Zm-5.8-13.92a1.237,1.237,0,0,0-.655.194,1.33,1.33,0,0,0-.643.925,1.083,1.083,0,0,0,.324.9c.8.851,2.515,2.562,3.389,3.39a1.653,1.653,0,0,0,1.141.484,1.634,1.634,0,0,0,1.151-.5c.906-.886,3.106-3.38,5.047-5.581,1.127-1.277,2.1-2.38,2.632-2.956a1.859,1.859,0,0,0,.508-1.382.987.987,0,0,0-.508-.746,1.591,1.591,0,0,0-.807-.261c-.5,0-.968.354-1.6.965-.521.505-1.961,2.178-3.354,3.8-1.337,1.552-2.6,3.015-3.11,3.531-.369-.39-1.323-1.275-1.893-1.8l-.374-.347A1.9,1.9,0,0,0,466.7,365.08Z" transform="translate(-459 -352)" fill="#434343"/>
</svg>
