<svg xmlns="http://www.w3.org/2000/svg" width="26.995" height="27" viewBox="0 0 26.995 27">
  <path id="Icon_open-browser" data-name="Icon open-browser" d="M1.146,0A1.687,1.687,0,0,0,0,1.685V25.3a1.687,1.687,0,0,0,1.687,1.687H25.305A1.687,1.687,0,0,0,26.992,25.3V1.685A1.687,1.687,0,0,0,25.305,0H1.686a1.687,1.687,0,0,0-.3,0,1.687,1.687,0,0,0-.2,0ZM4.06,3.372A1.687,1.687,0,1,1,2.373,5.059,1.671,1.671,0,0,1,4.06,3.372Zm4.748,0H22.931a1.687,1.687,0,0,1,0,3.374H8.809a1.687,1.687,0,0,1,0-3.374ZM2.373,9.12H24.618v15.5H2.373Z" transform="translate(0.003 0.009)" fill="#4a5768"/>
</svg>
